# xmcd
#
# Track frame offsets:
#	150
#	15484
#	26235
#	45130
#	62967
#	85910
#	103820
#	119575
#	139830
#	163425
#	180772
#	200370
#
# Disc length: 2925 seconds
#
# Revision: 2
# Processed by: cddbd v1.5.2PL0 Copyright (c) Steve Scherf et al.
# Submitted via: audiograbber 1.83.01
#
DISCID=a00b6b0c
DTITLE=Trembling Highburys - The Moon Is Mine
DYEAR=2003
DGENRE=Pop
TTITLE0=Trembling Highburys - The Moon Is Mine
TTITLE1=Trembling Highburys - A Song For You
TTITLE2=Trembling Highburys - High Roller
TTITLE3=Trembling Highburys - Troubles
TTITLE4=Trembling Highburys - Under My Trembling Trees
TTITLE5=Trembling Highburys - Just Survive
TTITLE6=Trembling Highburys - Realize
TTITLE7=Trembling Highburys - Blues And Boogie
TTITLE8=Trembling Highburys - I Love It Well
TTITLE9=Trembling Highburys - Little Stars
TTITLE10=Trembling Highburys - When We Talk
TTITLE11=Trembling Highburys - Do You Like It
EXTD=
EXTT0=
EXTT1=
EXTT2=
EXTT3=
EXTT4=
EXTT5=
EXTT6=
EXTT7=
EXTT8=
EXTT9=
EXTT10=
EXTT11=
PLAYORDER=
